<?xml version="1.0" standalone="no"?>
<!DOCTYPE svg PUBLIC "-//W3C//DTD SVG 20010904//EN"
 "http://www.w3.org/TR/2001/REC-SVG-20010904/DTD/svg10.dtd">
<svg version="1.0" xmlns="http://www.w3.org/2000/svg"
 width="3000.000000pt" height="2000.000000pt" viewBox="0 0 3000.000000 2000.000000"
 preserveAspectRatio="xMidYMid meet">

<g transform="translate(0.000000,2000.000000) scale(0.100000,-0.100000)"
fill="#000000" stroke="none">
<path d="M9144 14858 c-18 -29 -4 -110 32 -190 37 -82 50 -157 28 -165 -19 -6
-78 42 -129 105 -27 34 -52 59 -56 54 -24 -24 -14 -203 16 -291 14 -41 14 -44
-9 -75 -42 -54 -173 -332 -162 -343 2 -2 22 17 45 43 22 26 41 41 41 34 0 -7
-20 -52 -44 -99 -57 -111 -70 -160 -61 -230 l8 -56 24 50 c14 28 22 39 19 25
-4 -14 -9 -99 -12 -190 -5 -158 -4 -164 12 -135 46 84 114 118 180 90 20 -8
38 -15 39 -15 2 0 18 24 36 52 19 29 73 94 121 145 48 51 105 124 128 161 l41
69 82 -28 c218 -74 561 -78 815 -9 40 11 76 20 80 20 4 0 15 -13 25 -29 29
-50 90 -116 167 -183 57 -50 86 -85 121 -145 l45 -81 23 19 c49 40 139 42 171
4 19 -23 29 -8 25 38 -2 23 -7 81 -10 129 -3 47 -8 95 -11 105 -3 10 6 -2 19
-27 l25 -45 7 38 c13 68 -1 127 -54 229 -28 54 -51 103 -51 110 0 7 21 -8 46
-32 l45 -45 -21 55 c-75 191 -183 352 -274 405 -22 13 -50 39 -61 56 -28 45
-126 105 -215 133 -107 34 -202 46 -460 56 -263 11 -311 22 -435 100 -44 27
-84 49 -90 47 -23 -8 -14 -39 24 -80 23 -24 41 -47 41 -51 0 -14 -73 -5 -108
13 -20 11 -80 54 -131 95 -93 74 -122 88 -137 64z"/>
<path d="M14285 14723 c-39 -16 -63 -33 -210 -148 -86 -68 -146 -91 -256 -100
-212 -17 -341 -84 -403 -212 -36 -72 -43 -153 -26 -284 16 -120 6 -154 -74
-257 -92 -117 -118 -192 -109 -322 12 -186 99 -350 272 -511 77 -71 81 -77 81
-117 0 -32 -14 -69 -57 -152 -54 -104 -57 -113 -57 -182 -1 -87 22 -137 85
-192 66 -56 234 -100 349 -90 208 19 199 11 125 109 -111 147 -178 276 -243
466 l-37 108 -43 11 c-57 14 -123 82 -154 158 -31 77 -33 258 -4 312 54 102
151 149 215 104 21 -15 24 -15 52 12 33 32 31 32 231 19 107 -7 120 -6 160 14
53 25 76 63 114 181 17 54 36 94 54 112 25 25 35 28 94 28 37 0 110 -7 164
-16 166 -28 231 -19 372 51 132 65 143 60 146 -68 1 -51 7 -110 13 -130 28
-84 137 -130 207 -87 79 50 173 -13 218 -145 6 -15 12 -5 30 45 13 36 34 92
46 125 19 48 24 81 24 160 1 89 -2 106 -27 160 -15 33 -47 85 -71 115 -60 77
-65 89 -76 182 -17 142 -77 274 -154 340 -92 80 -254 107 -451 75 -105 -17
-139 -13 -205 27 -84 51 -129 72 -204 95 -80 25 -136 26 -191 4z"/>
<path d="M19899 13819 c-411 -60 -740 -293 -908 -644 -99 -205 -168 -512 -202
-890 -14 -156 -17 -600 -6 -775 8 -133 34 -394 43 -447 7 -35 22 -42 99 -44
78 -2 90 -9 143 -89 135 -201 306 -309 489 -310 115 0 180 26 255 101 36 35
58 66 58 80 0 12 11 32 24 44 13 12 33 53 45 91 13 38 25 76 27 84 3 8 16 -16
29 -53 13 -37 38 -91 56 -119 33 -51 109 -131 117 -123 2 2 -12 31 -32 64 -84
137 -119 253 -81 267 54 21 130 -51 264 -249 51 -75 95 -138 99 -140 14 -8 82
5 82 16 0 6 -24 67 -54 136 -61 144 -82 217 -72 254 12 51 70 41 130 -22 16
-17 61 -94 101 -171 l71 -140 54 37 c30 20 84 67 121 105 l65 68 100 1 c104 0
127 5 132 28 7 34 1 841 -8 976 -33 516 -107 963 -200 1205 -62 160 -193 331
-338 441 -125 94 -328 184 -490 215 -80 15 -127 16 -213 3z m632 -871 l24
-213 67 -3 67 -3 7 47 c4 26 4 109 2 186 -3 76 -4 137 -2 135 8 -8 53 -192 60
-243 6 -54 7 -55 34 -49 70 15 149 -61 171 -163 30 -147 -64 -351 -175 -380
-27 -7 -30 -13 -47 -95 -35 -173 -97 -333 -180 -458 l-50 -77 5 -83 c3 -46 8
-125 11 -176 l6 -92 -46 -31 c-111 -76 -289 -150 -425 -176 -144 -28 -342 23
-547 139 l-73 42 0 184 0 184 -49 76 c-91 142 -160 301 -206 474 -14 51 -30
94 -36 96 -29 9 -88 75 -112 126 -83 168 -46 358 77 405 42 15 78 4 116 -35
l34 -35 587 0 587 0 5 33 c3 17 16 114 29 215 12 100 25 182 28 182 3 0 17
-96 31 -212z"/>
<path d="M6245 13560 c-161 -35 -295 -94 -454 -200 -162 -109 -359 -317 -428
-452 -106 -208 -222 -502 -283 -719 -77 -272 -159 -782 -160 -992 0 -58 -3
-78 -12 -75 -27 9 -157 210 -289 444 -209 372 -618 1254 -649 1401 l-12 53
-40 -53 c-121 -155 -333 -329 -510 -419 -96 -48 -260 -108 -297 -108 -12 0
-21 -2 -21 -5 0 -24 36 -217 55 -298 122 -515 230 -971 251 -1062 14 -60 54
-229 89 -375 271 -1124 338 -1417 338 -1485 0 -38 -17 -230 -36 -425 -20 -195
-45 -472 -56 -615 -12 -143 -25 -316 -31 -385 -18 -223 -92 -489 -341 -1222
-193 -568 -228 -680 -236 -750 -12 -115 34 -197 140 -247 79 -37 145 -51 278
-58 l107 -6 -15 -36 c-8 -20 -23 -54 -33 -77 -26 -57 -95 -268 -130 -399 -118
-441 -201 -1019 -224 -1565 l-6 -125 44 160 c185 677 371 1193 573 1595 94
186 120 234 148 273 l20 27 147 -83 c80 -46 174 -94 208 -107 l62 -23 -9 -116
c-4 -64 -8 -264 -7 -446 0 -432 27 -736 106 -1220 l33 -200 7 150 c33 672 114
1324 211 1700 l13 50 120 7 c65 3 148 11 184 17 36 6 70 11 75 11 6 0 9 -82 7
-232 -7 -458 39 -1160 112 -1734 31 -243 50 -373 53 -370 2 1 14 146 28 322
43 548 80 924 131 1349 52 431 100 736 117 747 23 15 193 8 287 -12 143 -29
328 -60 366 -60 41 0 43 -3 100 -178 124 -379 263 -1035 335 -1576 10 -82 21
-151 23 -153 2 -2 9 90 17 204 18 272 19 1037 1 1223 -13 136 -61 480 -68 491
-2 4 30 23 70 42 92 44 125 85 157 199 22 77 24 100 24 338 0 191 -5 291 -19
397 -15 120 -16 144 -5 161 31 43 324 354 387 409 89 78 181 148 273 206 l75
48 27 167 c85 537 145 1161 167 1737 13 355 -1 542 -55 736 -87 308 -265 548
-511 685 l-66 37 7 61 c27 236 128 743 181 904 89 269 119 486 111 811 -5 225
-19 349 -57 521 -10 47 -27 126 -36 175 -22 116 -63 232 -124 354 -28 53 -50
93 -50 88 0 -4 -26 19 -57 51 -32 32 -80 72 -108 87 -27 16 -77 49 -110 73
-76 55 -199 115 -295 142 -111 32 -306 36 -425 10z m794 -1414 c22 -47 43 -86
47 -86 4 0 23 5 41 12 28 10 39 10 66 -5 18 -10 43 -34 57 -54 22 -32 25 -47
25 -122 0 -74 -4 -94 -28 -143 -33 -67 -93 -124 -140 -133 -30 -6 -38 -14 -63
-68 -85 -181 -264 -394 -396 -470 -40 -23 -68 -47 -72 -60 -64 -230 -93 -395
-75 -429 13 -25 73 -53 299 -143 107 -42 213 -86 235 -97 l39 -21 -55 -27
c-155 -79 -297 -104 -594 -104 -253 -1 -319 8 -490 66 -84 28 -218 92 -258
122 -15 12 -18 38 -24 197 -7 208 5 330 42 419 12 30 35 92 49 137 l27 82 -28
43 c-71 104 -129 303 -148 505 -7 66 -10 72 -35 83 -93 39 -149 194 -120 335
22 105 67 168 142 199 49 21 70 20 101 -4 24 -19 28 -19 64 -6 65 25 104 26
243 11 201 -23 480 -30 580 -16 109 16 201 51 275 105 l60 44 47 -143 c25 -79
65 -182 87 -229z"/>
<path d="M15568 13204 c-3 -5 -11 -26 -17 -46 -16 -50 -78 -104 -129 -113
l-40 -6 -7 -72 c-17 -177 -71 -376 -139 -517 -20 -40 -36 -74 -36 -76 0 -1 60
-1 133 0 125 2 137 4 179 29 63 37 146 130 180 203 63 135 58 264 -17 372 -46
68 -73 124 -89 184 -7 28 -15 47 -18 42z"/>
<path d="M24285 13089 c-224 -25 -429 -134 -578 -307 -78 -90 -129 -167 -187
-287 -113 -231 -163 -441 -185 -773 -16 -239 -21 -269 -59 -345 -56 -113 -147
-191 -406 -347 -303 -183 -411 -263 -501 -377 -141 -178 -222 -452 -235 -803
-7 -176 8 -282 67 -467 63 -201 58 -257 -46 -463 -100 -198 -107 -274 -46
-510 11 -43 9 -54 -56 -253 -38 -115 -73 -208 -77 -208 -5 0 -58 95 -118 213
-192 375 -359 699 -428 833 -37 72 -122 238 -190 370 -67 132 -126 244 -130
248 -4 5 -48 -7 -96 -26 -117 -47 -241 -82 -380 -109 l-114 -21 0 -46 c0 -88
30 -537 51 -751 63 -671 178 -1321 303 -1722 l15 -46 -37 -6 c-81 -13 -248
-26 -467 -37 -396 -20 -941 1 -1435 56 -201 23 -628 86 -687 101 l-23 6 0
-320 0 -320 -72 -78 c-284 -312 -534 -712 -708 -1134 -59 -143 -142 -373 -205
-570 -24 -74 -44 -130 -44 -125 -1 6 -3 156 -6 335 -3 179 -8 360 -11 403 -6
74 -7 78 -28 73 -11 -3 -24 -6 -27 -6 -4 0 -9 -9 -12 -20 -3 -11 -11 -20 -19
-19 -10 0 -10 2 0 6 6 2 12 8 12 13 0 4 -22 0 -48 -10 -231 -88 -691 -165
-1107 -186 l-132 -7 -53 109 c-28 60 -54 123 -56 139 -2 17 -8 178 -14 359 -6
182 -15 398 -20 480 -5 83 -12 207 -15 276 -11 245 -62 683 -106 918 -21 113
-21 113 -48 108 -46 -10 -381 -45 -536 -57 -82 -6 -270 -12 -417 -12 l-268 -2
0 -230 c0 -220 19 -590 40 -795 6 -52 26 -277 45 -500 35 -402 69 -782 81
-892 l6 -58 -74 -1 c-423 -3 -636 7 -843 41 -60 10 -110 17 -111 16 -1 -2 94
-2661 95 -2663 0 -2 324 -3 719 -3 l719 0 12 38 c6 20 81 276 167 567 85 292
157 536 160 544 9 26 14 4 20 -85 3 -49 12 -165 20 -259 8 -93 16 -197 18
-230 19 -299 41 -552 49 -563 8 -10 127 -12 568 -10 308 2 559 1 559 -2 0 -3
1439 -4 3198 -3 1758 2 3540 3 3959 3 l762 0 20 68 c11 37 43 159 71 272 55
221 59 235 64 229 2 -2 9 -112 15 -244 6 -132 14 -259 17 -283 l5 -42 887 0
887 0 118 409 c65 225 135 476 157 557 21 82 73 248 115 369 108 313 142 422
166 538 36 179 51 535 29 711 -26 207 -94 486 -194 790 l-65 199 97 107 c185
204 259 307 328 456 102 224 125 447 84 817 -23 201 -80 605 -108 764 l-18
102 47 35 c66 51 198 191 246 261 123 182 172 366 139 523 -20 94 -51 150
-146 262 -99 116 -165 211 -228 330 -73 139 -114 257 -182 532 -68 278 -88
343 -135 445 -103 223 -308 414 -535 497 -36 13 -110 38 -165 56 -306 98 -399
223 -439 595 -39 356 -48 426 -66 527 -88 471 -377 769 -751 772 -84 1 -85 1
-100 31 -11 22 -37 41 -95 69 -72 36 -90 40 -214 52 -74 7 -142 13 -150 12 -8
0 -46 -4 -85 -9z m463 -813 c63 -118 180 -193 332 -211 30 -3 76 -15 102 -27
49 -21 119 -88 140 -133 8 -19 19 -25 42 -25 82 -1 153 -66 177 -163 19 -78 8
-212 -24 -273 -26 -52 -82 -109 -121 -124 -18 -6 -30 -33 -60 -126 -21 -64
-62 -164 -92 -222 l-53 -106 14 -211 c9 -147 19 -224 30 -253 28 -70 86 -110
244 -171 l141 -54 -30 -19 c-113 -68 -319 -154 -490 -203 -305 -88 -614 -92
-925 -14 -178 45 -402 136 -532 217 l-41 26 185 77 c198 82 229 103 265 178
19 40 22 60 20 159 l-3 113 -54 72 c-29 40 -72 105 -94 145 -44 77 -122 260
-140 328 -8 31 -18 45 -40 53 -41 18 -97 79 -123 136 -20 43 -23 66 -23 160 0
104 2 113 31 165 52 93 152 127 227 76 l35 -24 22 23 c40 42 133 83 300 130
91 26 197 62 237 81 86 41 169 114 225 200 23 35 45 64 48 64 3 0 15 -20 28
-44z m-1718 -5537 c0 -31 -18 -132 -39 -225 -164 -705 -317 -1494 -356 -1834
-18 -160 -19 -212 -4 -277 7 -33 8 -181 2 -478 l-8 -430 -28 120 c-16 66 -62
262 -103 435 -221 933 -392 1443 -611 1817 l-24 41 53 17 c158 52 382 197 608
394 100 87 349 332 430 424 40 45 68 69 72 63 4 -6 8 -36 8 -67z m1955 -1711
c39 -51 96 -126 128 -167 31 -41 57 -80 57 -85 0 -13 -121 -150 -199 -225 -70
-67 -217 -185 -296 -238 -132 -88 -365 -188 -423 -181 -21 2 -27 8 -27 27 0
17 14 34 50 59 28 19 43 33 34 29 -68 -24 -168 -49 -202 -50 -36 -2 -42 1 -45
19 -4 25 25 48 116 96 31 16 46 27 32 23 -172 -42 -264 -54 -304 -39 -26 10
-19 51 13 75 16 11 70 40 122 63 111 49 130 75 32 41 -123 -41 -154 -41 -167
2 -14 45 65 96 309 196 119 49 196 89 215 112 6 7 10 26 8 42 -4 39 -51 66
-147 87 -44 10 -84 22 -87 27 -11 18 17 38 94 68 208 80 330 103 567 109 l50
1 70 -91z m-7838 -2020 c-3 -8 -6 -5 -6 6 -1 11 2 17 5 13 3 -3 4 -12 1 -19z"/>
<path d="M8910 12979 c0 -57 24 -207 36 -218 3 -3 10 2 15 12 14 24 30 21 25
-5 -12 -71 34 -244 79 -296 l23 -27 13 28 c7 15 15 27 18 27 3 0 23 -48 44
-107 21 -60 49 -128 62 -153 23 -44 24 -45 33 -20 l10 25 15 -36 c9 -19 19
-48 23 -63 7 -31 10 -32 72 -39 l42 -5 0 34 c0 24 -8 43 -26 62 -105 109 -225
366 -292 622 -27 103 -28 105 -62 114 -19 6 -56 31 -82 56 l-48 46 0 -57z"/>
<path d="M10971 12996 c-19 -20 -58 -45 -87 -57 l-52 -22 -27 -106 c-48 -187
-116 -343 -206 -478 -47 -69 -49 -75 -49 -143 l0 -70 29 0 c22 0 30 6 35 23 3
13 13 41 22 63 16 39 17 39 26 14 9 -24 11 -23 38 30 15 30 43 99 61 152 19
54 37 98 40 98 3 0 11 -12 18 -26 10 -22 14 -24 27 -13 43 36 83 160 86 267 2
63 9 76 27 45 5 -10 12 -15 15 -12 14 14 37 156 34 211 l-3 59 -34 -35z"/>
<path d="M17116 12942 c-25 -43 -46 -82 -46 -87 0 -4 33 -39 73 -77 39 -38
118 -114 175 -169 56 -55 102 -97 102 -94 0 4 -45 93 -99 198 -55 106 -113
218 -129 250 l-29 58 -47 -79z"/>
<path d="M15230 12118 c0 -38 30 -189 42 -213 6 -11 15 -23 20 -26 5 -3 18
-59 29 -125 11 -65 22 -121 25 -123 8 -9 4 186 -7 249 -12 73 -51 178 -86 230
-23 34 -23 34 -23 8z"/>
<path d="M14043 12007 c-56 -78 -62 -90 -83 -180 -14 -59 -20 -117 -20 -207 0
-122 17 -280 30 -280 4 0 8 44 9 98 4 171 26 285 76 387 24 49 47 107 51 128
7 42 -2 107 -16 107 -5 0 -26 -24 -47 -53z"/>
<path d="M15861 11773 c-82 -90 -192 -253 -234 -345 -42 -91 -131 -347 -124
-354 3 -3 8 5 12 18 23 73 239 467 309 563 36 49 108 176 103 181 -2 3 -32
-26 -66 -63z"/>
<path d="M13215 11300 c153 -101 234 -170 427 -360 93 -91 168 -163 168 -162
0 2 -9 16 -21 30 -11 15 -59 79 -105 142 -102 141 -111 151 -199 221 -114 91
-276 182 -345 195 -29 6 -15 -6 75 -66z"/>
<path d="M17635 10927 c-110 -69 -429 -283 -452 -301 -10 -8 -61 -47 -113 -88
-119 -92 -268 -239 -302 -298 -108 -186 -112 -543 -12 -1102 20 -109 46 -240
59 -290 l23 -93 2 70 c0 39 3 174 5 300 3 127 12 379 21 560 l17 330 146 144
c80 80 139 140 131 135 -10 -5 -8 -2 2 8 10 9 22 18 26 20 4 2 25 23 46 48 21
25 70 79 108 120 38 41 76 83 84 93 9 10 40 47 70 83 61 72 210 267 225 296
14 27 3 22 -86 -35z"/>
<path d="M15235 10889 c-286 -40 -500 -53 -863 -54 l-353 0 6 -35 c3 -19 35
-159 70 -310 70 -300 117 -527 136 -662 l13 -88 241 0 c264 0 440 11 675 40
85 11 160 20 166 20 7 0 13 75 17 238 4 130 13 316 22 412 16 184 20 461 8
459 -5 -1 -66 -10 -138 -20z"/>
<path d="M19912 9849 c-49 -14 -118 -86 -132 -137 -28 -106 49 -192 170 -192
154 0 265 142 201 260 -36 67 -140 97 -239 69z"/>
<path d="M13251 8892 c-24 -185 -49 -386 -56 -447 -8 -60 -21 -164 -30 -230
-19 -133 -28 -205 -44 -345 -10 -80 -35 -176 -71 -265 -4 -11 -45 -135 -91
-275 -45 -140 -113 -347 -150 -460 -37 -113 -62 -197 -56 -187 7 11 33 46 59
79 52 65 364 488 440 596 l48 68 0 898 c0 495 -1 900 -3 902 -2 2 -22 -148
-46 -334z"/>
<path d="M15190 9165 c-202 -25 -367 -36 -626 -42 l-262 -6 5 -531 c2 -292 6
-537 8 -543 3 -10 60 -13 237 -13 251 0 428 10 662 36 l148 17 -6 36 c-41 235
-48 532 -21 846 8 98 15 187 15 197 0 21 -7 21 -160 3z"/>
<path d="M19885 9118 c-53 -20 -83 -47 -101 -93 -21 -56 -9 -107 38 -161 45
-51 98 -75 169 -75 107 -1 179 59 179 148 0 70 -42 129 -119 168 -42 21 -127
28 -166 13z"/>
<path d="M19940 8391 c-100 -32 -160 -105 -160 -194 0 -168 247 -202 355 -49
24 36 30 54 30 97 0 57 -18 91 -66 127 -28 21 -120 32 -159 19z"/>
<path d="M12269 8343 l-107 -45 -6 -40 c-4 -23 -5 -43 -2 -45 4 -5 58 34 180
129 16 13 34 26 40 30 6 4 8 9 6 12 -3 2 -53 -16 -111 -41z"/>
<path d="M19865 7643 c-109 -57 -123 -170 -31 -258 163 -157 424 -7 307 177
-53 84 -193 125 -276 81z"/>
<path d="M10870 5681 c-63 -21 -254 -98 -424 -170 -751 -320 -1047 -425 -1420
-503 -141 -30 -165 -32 -361 -33 -172 0 -222 3 -275 18 -87 24 -183 70 -247
117 l-51 39 -6 -37 c-3 -20 -6 -91 -8 -157 -2 -113 0 -127 35 -237 80 -255
105 -482 72 -653 -18 -98 -54 -197 -93 -260 -25 -39 -25 -39 -18 -220 15 -425
70 -944 130 -1240 l12 -60 834 0 834 0 117 930 c64 512 118 939 120 950 3 11
33 -167 68 -395 34 -228 84 -559 111 -735 27 -176 64 -418 82 -537 l33 -218
881 0 881 0 21 157 c26 186 57 506 72 723 12 181 26 790 17 790 -3 0 -33 -46
-68 -102 -34 -57 -76 -118 -93 -136 -17 -18 -80 -62 -141 -97 -189 -110 -216
-115 -236 -42 -8 32 -8 55 1 97 12 51 20 62 110 150 91 89 99 99 109 150 66
325 78 395 74 411 -8 29 -88 73 -118 65 -30 -8 -36 -28 -66 -230 -25 -160 -40
-196 -85 -196 -26 0 -83 53 -108 100 -8 14 -33 117 -56 230 -32 157 -41 219
-37 267 5 63 15 84 191 405 l37 67 -50 7 -51 7 -2 170 -3 170 -48 12 c-56 14
-47 37 -82 -205 -31 -211 -37 -236 -73 -286 -32 -44 -319 -302 -359 -323 -38
-19 -139 -27 -158 -11 -24 20 -17 65 21 137 20 38 58 109 85 159 27 50 49 98
49 106 0 25 -33 46 -75 49 -74 5 -75 3 -173 -204 -123 -258 -115 -232 -92
-337 25 -111 25 -163 1 -215 -21 -46 -73 -95 -101 -95 -24 0 -56 55 -122 206
-61 139 -61 147 -28 489 26 277 27 281 216 504 230 271 246 291 237 291 -4 -1
-60 -18 -123 -39z"/>
</g>
</svg>
